<?xml version="1.0" encoding="UTF-8" standalone="no"?>
<!DOCTYPE svg PUBLIC "-//W3C//DTD SVG 1.1//EN" "http://www.w3.org/Graphics/SVG/1.1/DTD/svg11.dtd">
<svg width="100%" height="100%" viewBox="0 0 24 24" version="1.1" xmlns="http://www.w3.org/2000/svg" xmlns:xlink="http://www.w3.org/1999/xlink" xml:space="preserve" xmlns:serif="http://www.serif.com/" style="fill-rule:evenodd;clip-rule:evenodd;stroke-linejoin:round;stroke-miterlimit:2;">
    <path d="M12,7.082C13.602,7.082 13.792,7.088 14.425,7.117C16.052,7.191 16.81,7.962 16.885,9.576C16.913,10.209 16.919,10.398 16.919,12C16.919,13.602 16.913,13.792 16.885,14.424C16.81,16.037 16.053,16.81 14.425,16.884C13.792,16.912 13.603,16.919 12,16.919C10.398,16.919 10.208,16.913 9.576,16.884C7.946,16.809 7.191,16.035 7.116,14.424C7.088,13.792 7.081,13.602 7.081,12C7.081,10.398 7.088,10.208 7.116,9.576C7.19,7.961 7.948,7.19 9.576,7.116C10.208,7.087 10.398,7.082 12,7.082ZM12,6C10.37,6 10.167,6.007 9.526,6.037C7.346,6.137 6.136,7.346 6.036,9.526C6.007,10.167 6,10.371 6,12C6,13.63 6.007,13.834 6.036,14.474C6.136,16.653 7.346,17.864 9.526,17.964C10.167,17.993 10.37,18 12,18C13.63,18 13.834,17.993 14.475,17.964C16.651,17.864 17.866,16.655 17.964,14.474C17.993,13.834 18,13.63 18,12C18,10.371 17.993,10.167 17.964,9.526C17.866,7.349 16.655,6.136 14.475,6.037C13.834,6.007 13.63,6 12,6ZM12,8.919C10.31,8.919 8.919,10.31 8.919,12C8.919,13.69 10.31,15.081 12,15.081C13.69,15.081 15.081,13.69 15.081,12C15.081,10.31 13.69,8.919 12,8.919ZM12,14C10.903,14 10,13.097 10,12C10,10.903 10.903,10 12,10C13.097,10 14,10.903 14,12C14,13.097 13.097,14 12,14ZM15.202,8.078C14.807,8.078 14.482,8.403 14.482,8.798C14.482,9.193 14.807,9.518 15.202,9.518C15.597,9.518 15.922,9.193 15.922,8.798C15.922,8.403 15.597,8.078 15.202,8.078Z" style="fill:rgb(126,168,190);fill-rule:nonzero;"/>
</svg>
