<?xml version="1.0" encoding="UTF-8" standalone="no"?>
<!DOCTYPE svg PUBLIC "-//W3C//DTD SVG 1.1//EN" "http://www.w3.org/Graphics/SVG/1.1/DTD/svg11.dtd">
<svg width="100%" height="100%" viewBox="0 0 485 264" version="1.1" xmlns="http://www.w3.org/2000/svg" xmlns:xlink="http://www.w3.org/1999/xlink" xml:space="preserve" xmlns:serif="http://www.serif.com/" style="fill-rule:evenodd;clip-rule:evenodd;stroke-linejoin:round;stroke-miterlimit:2;">
    <g transform="matrix(1,0,0,1,-2347,-292)">
        <g id="Pewter" transform="matrix(1,0,0,1,-0.387024,-0.171012)">
            <rect x="2347.39" y="292.171" width="484.619" height="263.117" style="fill:none;"/>
            <g id="Logotype" transform="matrix(0.581034,0,0,0.581034,1494.51,140.531)">
                <g transform="matrix(0.635286,0,0,0.635286,1141.21,368.405)">
                    <g transform="matrix(187.256,0,0,187.256,497.061,399.04)">
                        <path d="M0.097,-0L0.251,-0C0.498,-0 0.622,-0.122 0.622,-0.362C0.622,-0.5 0.576,-0.606 0.497,-0.666C0.437,-0.711 0.366,-0.723 0.269,-0.723L0.097,-0.723L0.097,-0ZM0.251,-0.656C0.333,-0.656 0.395,-0.651 0.449,-0.609C0.511,-0.561 0.544,-0.477 0.544,-0.361C0.544,-0.251 0.51,-0.168 0.45,-0.121C0.399,-0.08 0.332,-0.071 0.24,-0.071L0.176,-0.071L0.176,-0.656L0.251,-0.656Z" style="fill:rgb(126,168,190);fill-rule:nonzero;"/>
                    </g>
                    <g transform="matrix(187.256,0,0,187.256,623.272,399.04)">
                        <path d="M0.082,-0L0.156,-0L0.156,-0.291C0.188,-0.399 0.244,-0.456 0.315,-0.456L0.324,-0.456L0.324,-0.528C0.318,-0.529 0.313,-0.529 0.307,-0.529C0.238,-0.529 0.191,-0.488 0.156,-0.404L0.156,-0.523L0.082,-0.523L0.082,-0Z" style="fill:rgb(126,168,190);fill-rule:nonzero;"/>
                    </g>
                    <g transform="matrix(187.256,0,0,187.256,664.094,399.04)">
                        <rect x="0.102" y="-0.11" width="0.097" height="0.11" style="fill:rgb(126,168,190);fill-rule:nonzero;"/>
                    </g>
                    <g transform="matrix(187.256,0,0,187.256,775.324,399.04)">
                        <path d="M0.003,-0.082C0.045,-0.016 0.097,0.012 0.171,0.012C0.283,0.012 0.344,-0.058 0.344,-0.192L0.344,-0.723L0.266,-0.723L0.266,-0.2C0.266,-0.103 0.247,-0.056 0.171,-0.056C0.124,-0.056 0.097,-0.077 0.066,-0.126L0.003,-0.082Z" style="fill:rgb(126,168,190);fill-rule:nonzero;"/>
                    </g>
                    <g transform="matrix(187.256,0,0,187.256,856.781,399.04)">
                        <path d="M0.453,-0.523L0.381,-0.523L0.381,-0.133C0.333,-0.08 0.285,-0.054 0.233,-0.054C0.171,-0.054 0.149,-0.088 0.149,-0.163L0.149,-0.523L0.077,-0.523L0.077,-0.136C0.077,-0.043 0.127,0.009 0.213,0.009C0.276,0.009 0.331,-0.02 0.387,-0.079L0.387,-0L0.453,-0L0.453,-0.523Z" style="fill:rgb(126,168,190);fill-rule:nonzero;"/>
                    </g>
                    <g transform="matrix(187.256,0,0,187.256,956.401,399.04)">
                        <path d="M0.019,-0.09C0.062,-0.027 0.135,0.009 0.217,0.009C0.333,0.009 0.404,-0.055 0.404,-0.148C0.404,-0.221 0.364,-0.265 0.277,-0.293C0.222,-0.311 0.173,-0.317 0.138,-0.342C0.121,-0.354 0.112,-0.374 0.112,-0.396C0.112,-0.442 0.146,-0.472 0.2,-0.472C0.252,-0.472 0.297,-0.447 0.336,-0.397L0.384,-0.445C0.334,-0.504 0.273,-0.532 0.196,-0.532C0.103,-0.532 0.038,-0.474 0.038,-0.389C0.038,-0.32 0.081,-0.273 0.17,-0.246C0.272,-0.215 0.331,-0.21 0.331,-0.14C0.331,-0.087 0.29,-0.052 0.226,-0.052C0.167,-0.052 0.118,-0.08 0.077,-0.136L0.019,-0.09Z" style="fill:rgb(126,168,190);fill-rule:nonzero;"/>
                    </g>
                    <g transform="matrix(187.256,0,0,187.256,1037.11,399.04)">
                        <path d="M0.289,-0.063C0.273,-0.059 0.258,-0.055 0.238,-0.055C0.177,-0.055 0.169,-0.073 0.169,-0.126L0.169,-0.461L0.288,-0.461L0.288,-0.523L0.169,-0.523L0.169,-0.692L0.093,-0.692L0.093,-0.523L0.015,-0.523L0.015,-0.461L0.093,-0.461L0.093,-0.093C0.093,-0.025 0.133,0.009 0.212,0.009C0.241,0.009 0.266,0.006 0.289,-0.002L0.289,-0.063Z" style="fill:rgb(126,168,190);fill-rule:nonzero;"/>
                    </g>
                    <g transform="matrix(187.256,0,0,187.256,1093.66,399.04)">
                        <path d="M0.087,-0L0.161,-0L0.161,-0.523L0.087,-0.523L0.087,-0ZM0.081,-0.635L0.167,-0.635L0.167,-0.723L0.081,-0.723L0.081,-0.635Z" style="fill:rgb(126,168,190);fill-rule:nonzero;"/>
                    </g>
                    <g transform="matrix(187.256,0,0,187.256,1139.35,399.04)">
                        <path d="M0.446,-0.126L0.385,-0.158C0.353,-0.089 0.303,-0.053 0.249,-0.053C0.159,-0.053 0.111,-0.123 0.111,-0.262C0.111,-0.399 0.16,-0.47 0.245,-0.47C0.299,-0.47 0.343,-0.435 0.364,-0.369L0.436,-0.392C0.405,-0.482 0.337,-0.533 0.247,-0.533C0.117,-0.533 0.037,-0.434 0.037,-0.262C0.037,-0.085 0.111,0.009 0.247,0.009C0.337,0.009 0.403,-0.035 0.446,-0.126Z" style="fill:rgb(126,168,190);fill-rule:nonzero;"/>
                    </g>
                    <g transform="matrix(187.256,0,0,187.256,1226.42,399.04)">
                        <path d="M0.404,-0.147C0.373,-0.086 0.32,-0.053 0.255,-0.053C0.171,-0.053 0.113,-0.119 0.113,-0.23L0.113,-0.247L0.446,-0.247L0.446,-0.269C0.446,-0.438 0.369,-0.532 0.242,-0.532C0.118,-0.532 0.038,-0.434 0.038,-0.262C0.038,-0.084 0.113,0.009 0.248,0.009C0.348,0.009 0.416,-0.03 0.457,-0.114L0.404,-0.147ZM0.114,-0.309C0.118,-0.413 0.166,-0.47 0.243,-0.47C0.317,-0.47 0.367,-0.412 0.369,-0.309L0.114,-0.309Z" style="fill:rgb(126,168,190);fill-rule:nonzero;"/>
                    </g>
                    <g transform="matrix(187.256,0,0,187.256,1371.36,399.04)">
                        <path d="M0.097,-0L0.176,-0L0.176,-0.328L0.362,-0.328L0.521,-0L0.609,-0L0.439,-0.347C0.539,-0.376 0.589,-0.438 0.589,-0.532C0.589,-0.67 0.495,-0.723 0.3,-0.723L0.097,-0.723L0.097,-0ZM0.3,-0.656C0.445,-0.656 0.508,-0.631 0.508,-0.525C0.508,-0.431 0.442,-0.395 0.297,-0.395L0.176,-0.395L0.176,-0.656L0.3,-0.656Z" style="fill:rgb(126,168,190);fill-rule:nonzero;"/>
                    </g>
                    <g transform="matrix(187.256,0,0,187.256,1489.52,399.04)">
                        <path d="M0.404,-0.147C0.373,-0.086 0.32,-0.053 0.255,-0.053C0.171,-0.053 0.113,-0.119 0.113,-0.23L0.113,-0.247L0.446,-0.247L0.446,-0.269C0.446,-0.438 0.369,-0.532 0.242,-0.532C0.118,-0.532 0.038,-0.434 0.038,-0.262C0.038,-0.084 0.113,0.009 0.248,0.009C0.348,0.009 0.416,-0.03 0.457,-0.114L0.404,-0.147ZM0.114,-0.309C0.118,-0.413 0.166,-0.47 0.243,-0.47C0.317,-0.47 0.367,-0.412 0.369,-0.309L0.114,-0.309Z" style="fill:rgb(126,168,190);fill-rule:nonzero;"/>
                    </g>
                    <g transform="matrix(187.256,0,0,187.256,1578.84,399.04)">
                        <path d="M0.087,-0L0.161,-0L0.161,-0.523L0.087,-0.523L0.087,-0ZM0.081,-0.635L0.167,-0.635L0.167,-0.723L0.081,-0.723L0.081,-0.635Z" style="fill:rgb(126,168,190);fill-rule:nonzero;"/>
                    </g>
                    <g transform="matrix(187.256,0,0,187.256,1624.53,399.04)">
                        <rect x="0.087" y="-0.723" width="0.073" height="0.723" style="fill:rgb(126,168,190);fill-rule:nonzero;"/>
                    </g>
                    <g transform="matrix(187.256,0,0,187.256,1670.22,399.04)">
                        <rect x="0.087" y="-0.723" width="0.073" height="0.723" style="fill:rgb(126,168,190);fill-rule:nonzero;"/>
                    </g>
                    <g transform="matrix(187.256,0,0,187.256,1715.91,399.04)">
                        <path d="M0.198,-0.009C0.177,0.086 0.145,0.123 0.072,0.123C0.063,0.123 0.049,0.122 0.031,0.118L0.031,0.185C0.045,0.189 0.061,0.191 0.077,0.191C0.187,0.191 0.226,0.13 0.267,0.009L0.446,-0.523L0.372,-0.523L0.236,-0.105L0.084,-0.523L0.01,-0.523L0.198,-0.009Z" style="fill:rgb(126,168,190);fill-rule:nonzero;"/>
                    </g>
                </g>
                <g transform="matrix(0.2827,0,0,0.2827,1322.87,594.627)">
                    <g transform="matrix(187.256,0,0,187.256,497.061,399.04)">
                        <path d="M0.097,-0L0.317,-0C0.501,-0 0.594,-0.066 0.594,-0.195C0.594,-0.285 0.541,-0.348 0.455,-0.381C0.533,-0.41 0.573,-0.465 0.573,-0.541C0.573,-0.673 0.483,-0.723 0.293,-0.723L0.097,-0.723L0.097,-0ZM0.308,-0.658C0.432,-0.658 0.492,-0.622 0.492,-0.541C0.492,-0.459 0.435,-0.413 0.33,-0.413L0.176,-0.413L0.176,-0.658L0.308,-0.658ZM0.325,-0.346C0.448,-0.346 0.512,-0.296 0.512,-0.205C0.512,-0.109 0.453,-0.069 0.325,-0.069L0.176,-0.069L0.176,-0.346L0.325,-0.346Z" style="fill:rgb(126,168,190);fill-rule:nonzero;"/>
                    </g>
                    <g transform="matrix(187.256,0,0,187.256,643.496,399.04)">
                        <path d="M0.097,-0L0.176,-0L0.176,-0.328L0.362,-0.328L0.521,-0L0.609,-0L0.439,-0.347C0.539,-0.376 0.589,-0.438 0.589,-0.532C0.589,-0.67 0.495,-0.723 0.3,-0.723L0.097,-0.723L0.097,-0ZM0.3,-0.656C0.445,-0.656 0.508,-0.631 0.508,-0.525C0.508,-0.431 0.442,-0.395 0.297,-0.395L0.176,-0.395L0.176,-0.656L0.3,-0.656Z" style="fill:rgb(126,168,190);fill-rule:nonzero;"/>
                    </g>
                    <g transform="matrix(187.256,0,0,187.256,792.365,399.04)">
                        <path d="M0.097,-0L0.541,-0L0.541,-0.069L0.177,-0.069L0.177,-0.346L0.423,-0.346L0.423,-0.414L0.177,-0.414L0.177,-0.655L0.524,-0.655L0.524,-0.723L0.097,-0.723L0.097,-0Z" style="fill:rgb(126,168,190);fill-rule:nonzero;"/>
                    </g>
                    <g transform="matrix(187.256,0,0,187.256,925.691,399.04)">
                        <path d="M0.017,-0L0.102,-0L0.166,-0.225L0.435,-0.225L0.5,-0L0.584,-0L0.362,-0.723L0.24,-0.723L0.017,-0ZM0.185,-0.292L0.294,-0.669L0.305,-0.669L0.413,-0.292L0.185,-0.292Z" style="fill:rgb(126,168,190);fill-rule:nonzero;"/>
                    </g>
                    <g transform="matrix(187.256,0,0,187.256,1064.82,399.04)">
                        <path d="M0.034,-0.181C0.074,-0.053 0.161,0.012 0.29,0.012C0.427,0.012 0.514,-0.069 0.514,-0.188C0.514,-0.3 0.456,-0.349 0.332,-0.396C0.263,-0.422 0.209,-0.438 0.178,-0.462C0.147,-0.487 0.131,-0.515 0.131,-0.55C0.131,-0.622 0.18,-0.668 0.258,-0.668C0.339,-0.668 0.396,-0.623 0.42,-0.537L0.492,-0.558C0.458,-0.673 0.378,-0.735 0.266,-0.735C0.137,-0.735 0.054,-0.658 0.054,-0.542C0.054,-0.448 0.108,-0.399 0.22,-0.355C0.282,-0.331 0.341,-0.315 0.388,-0.283C0.421,-0.261 0.437,-0.228 0.437,-0.183C0.437,-0.108 0.379,-0.057 0.286,-0.057C0.204,-0.057 0.136,-0.113 0.11,-0.206L0.034,-0.181Z" style="fill:rgb(126,168,190);fill-rule:nonzero;"/>
                    </g>
                    <g transform="matrix(187.256,0,0,187.256,1196.09,399.04)">
                        <path d="M0.233,-0L0.315,-0L0.315,-0.654L0.526,-0.654L0.526,-0.723L0.022,-0.723L0.022,-0.654L0.233,-0.654L0.233,-0Z" style="fill:rgb(126,168,190);fill-rule:nonzero;"/>
                    </g>
                    <g transform="matrix(187.256,0,0,187.256,1325.3,399.04)">
                        <path d="M0.097,-0L0.177,-0L0.177,-0.346L0.432,-0.346L0.432,-0.414L0.177,-0.414L0.177,-0.655L0.521,-0.655L0.521,-0.723L0.097,-0.723L0.097,-0Z" style="fill:rgb(126,168,190);fill-rule:nonzero;"/>
                    </g>
                    <g transform="matrix(187.256,0,0,187.256,1452.26,399.04)">
                        <path d="M0.097,-0L0.541,-0L0.541,-0.069L0.177,-0.069L0.177,-0.346L0.423,-0.346L0.423,-0.414L0.177,-0.414L0.177,-0.655L0.524,-0.655L0.524,-0.723L0.097,-0.723L0.097,-0Z" style="fill:rgb(126,168,190);fill-rule:nonzero;"/>
                    </g>
                    <g transform="matrix(187.256,0,0,187.256,1585.58,399.04)">
                        <path d="M0.097,-0L0.541,-0L0.541,-0.069L0.177,-0.069L0.177,-0.346L0.423,-0.346L0.423,-0.414L0.177,-0.414L0.177,-0.655L0.524,-0.655L0.524,-0.723L0.097,-0.723L0.097,-0Z" style="fill:rgb(126,168,190);fill-rule:nonzero;"/>
                    </g>
                    <g transform="matrix(187.256,0,0,187.256,1718.91,399.04)">
                        <path d="M0.097,-0L0.251,-0C0.498,-0 0.622,-0.122 0.622,-0.362C0.622,-0.5 0.576,-0.606 0.497,-0.666C0.437,-0.711 0.366,-0.723 0.269,-0.723L0.097,-0.723L0.097,-0ZM0.251,-0.656C0.333,-0.656 0.395,-0.651 0.449,-0.609C0.511,-0.561 0.544,-0.477 0.544,-0.361C0.544,-0.251 0.51,-0.168 0.45,-0.121C0.399,-0.08 0.332,-0.071 0.24,-0.071L0.176,-0.071L0.176,-0.656L0.251,-0.656Z" style="fill:rgb(126,168,190);fill-rule:nonzero;"/>
                    </g>
                    <g transform="matrix(187.256,0,0,187.256,1872.27,399.04)">
                        <rect x="0.102" y="-0.723" width="0.081" height="0.723" style="fill:rgb(126,168,190);fill-rule:nonzero;"/>
                    </g>
                    <g transform="matrix(187.256,0,0,187.256,1952.04,399.04)">
                        <path d="M0.097,-0L0.172,-0L0.172,-0.64L0.556,-0L0.618,-0L0.618,-0.723L0.543,-0.723L0.543,-0.159L0.211,-0.723L0.097,-0.723L0.097,-0Z" style="fill:rgb(126,168,190);fill-rule:nonzero;"/>
                    </g>
                    <g transform="matrix(187.256,0,0,187.256,2112.33,399.04)">
                        <path d="M0.522,-0L0.591,-0L0.591,-0.351L0.341,-0.351L0.341,-0.282L0.508,-0.282L0.508,-0.231C0.508,-0.121 0.438,-0.057 0.333,-0.057C0.206,-0.057 0.127,-0.167 0.127,-0.364C0.127,-0.56 0.201,-0.666 0.328,-0.666C0.415,-0.666 0.472,-0.612 0.5,-0.507L0.582,-0.523C0.542,-0.664 0.458,-0.735 0.331,-0.735C0.152,-0.735 0.045,-0.599 0.045,-0.358C0.045,-0.126 0.156,0.012 0.328,0.012C0.412,0.012 0.474,-0.017 0.519,-0.079L0.522,-0Z" style="fill:rgb(126,168,190);fill-rule:nonzero;"/>
                    </g>
                    <g transform="matrix(187.256,0,0,187.256,2345.09,399.04)">
                        <path d="M0.097,-0L0.174,-0L0.174,-0.637L0.392,-0L0.446,-0L0.664,-0.637L0.664,-0L0.741,-0L0.741,-0.723L0.625,-0.723L0.422,-0.112L0.22,-0.723L0.097,-0.723L0.097,-0Z" style="fill:rgb(126,168,190);fill-rule:nonzero;"/>
                    </g>
                    <g transform="matrix(187.256,0,0,187.256,2528.42,399.04)">
                        <path d="M0.097,-0L0.541,-0L0.541,-0.069L0.177,-0.069L0.177,-0.346L0.423,-0.346L0.423,-0.414L0.177,-0.414L0.177,-0.655L0.524,-0.655L0.524,-0.723L0.097,-0.723L0.097,-0Z" style="fill:rgb(126,168,190);fill-rule:nonzero;"/>
                    </g>
                    <g transform="matrix(187.256,0,0,187.256,2661.75,399.04)">
                        <path d="M0.097,-0L0.251,-0C0.498,-0 0.622,-0.122 0.622,-0.362C0.622,-0.5 0.576,-0.606 0.497,-0.666C0.437,-0.711 0.366,-0.723 0.269,-0.723L0.097,-0.723L0.097,-0ZM0.251,-0.656C0.333,-0.656 0.395,-0.651 0.449,-0.609C0.511,-0.561 0.544,-0.477 0.544,-0.361C0.544,-0.251 0.51,-0.168 0.45,-0.121C0.399,-0.08 0.332,-0.071 0.24,-0.071L0.176,-0.071L0.176,-0.656L0.251,-0.656Z" style="fill:rgb(126,168,190);fill-rule:nonzero;"/>
                    </g>
                    <g transform="matrix(187.256,0,0,187.256,2815.11,399.04)">
                        <rect x="0.102" y="-0.723" width="0.081" height="0.723" style="fill:rgb(126,168,190);fill-rule:nonzero;"/>
                    </g>
                    <g transform="matrix(187.256,0,0,187.256,2894.88,399.04)">
                        <path d="M0.579,-0.217L0.506,-0.233C0.486,-0.119 0.421,-0.057 0.327,-0.057C0.202,-0.057 0.127,-0.163 0.127,-0.359C0.127,-0.56 0.201,-0.667 0.325,-0.667C0.41,-0.667 0.47,-0.609 0.492,-0.5L0.567,-0.519C0.536,-0.662 0.452,-0.735 0.318,-0.735C0.154,-0.735 0.046,-0.6 0.046,-0.362C0.046,-0.121 0.148,0.012 0.324,0.012C0.459,0.012 0.544,-0.064 0.579,-0.217Z" style="fill:rgb(126,168,190);fill-rule:nonzero;"/>
                    </g>
                    <g transform="matrix(187.256,0,0,187.256,3034.39,399.04)">
                        <rect x="0.102" y="-0.723" width="0.081" height="0.723" style="fill:rgb(126,168,190);fill-rule:nonzero;"/>
                    </g>
                    <g transform="matrix(187.256,0,0,187.256,3114.16,399.04)">
                        <path d="M0.097,-0L0.172,-0L0.172,-0.64L0.556,-0L0.618,-0L0.618,-0.723L0.543,-0.723L0.543,-0.159L0.211,-0.723L0.097,-0.723L0.097,-0Z" style="fill:rgb(126,168,190);fill-rule:nonzero;"/>
                    </g>
                    <g transform="matrix(187.256,0,0,187.256,3274.45,399.04)">
                        <path d="M0.097,-0L0.541,-0L0.541,-0.069L0.177,-0.069L0.177,-0.346L0.423,-0.346L0.423,-0.414L0.177,-0.414L0.177,-0.655L0.524,-0.655L0.524,-0.723L0.097,-0.723L0.097,-0Z" style="fill:rgb(126,168,190);fill-rule:nonzero;"/>
                    </g>
                </g>
                <g transform="matrix(1.6659,0,0,1.22741,158.817,-302.311)">
                    <rect x="786.187" y="766.479" width="450.69" height="5.014" style="fill:rgb(126,168,190);"/>
                </g>
            </g>
            <g id="Pictorial-mark" serif:id="Pictorial mark" transform="matrix(0.581034,0,0,0.581034,1908.62,10.4998)">
                <g transform="matrix(1,0,0,1,824.449,-151.93)">
                    <path d="M362.249,738.13C375.012,749.56 383.048,766.16 383.048,784.622C383.048,819.06 355.088,847.02 320.65,847.02C286.212,847.02 258.253,819.06 258.253,784.622C258.253,750.184 286.212,722.225 320.65,722.225C322.827,722.225 324.977,722.336 327.1,722.555C325.748,722.458 324.381,722.409 323.002,722.409C291.602,722.409 266.109,747.905 266.109,779.308C266.109,810.711 291.602,836.207 323.002,836.207C354.403,836.207 379.896,810.711 379.896,779.308C379.896,763.116 373.119,748.495 362.249,738.13Z" style="fill:rgb(126,168,190);"/>
                </g>
                <g transform="matrix(1,0,0,1,824.449,-151.93)">
                    <path d="M233.137,700.775C251.03,663.087 289.452,637 333.92,637C395.459,637 445.42,686.961 445.42,748.5C445.42,810.039 395.459,860 333.92,860C289.452,860 251.03,833.913 233.137,796.225C250.273,828.49 284.222,850.48 323.267,850.48C379.551,850.48 425.247,804.784 425.247,748.5C425.247,692.216 379.551,646.52 323.267,646.52C284.222,646.52 250.273,668.51 233.137,700.775Z" style="fill:rgb(126,168,190);"/>
                </g>
                <g transform="matrix(1,0,0,1,826.321,-153.585)">
                    <circle cx="289.28" cy="695.353" r="31.163" style="fill:rgb(126,168,190);"/>
                </g>
                <g transform="matrix(0.55746,0,0,0.55746,1018.2,221.705)">
                    <circle cx="289.28" cy="695.353" r="31.163" style="fill:rgb(126,168,190);"/>
                </g>
                <g transform="matrix(1,0,0,1,824.455,-151.93)">
                    <path d="M375.437,764.968C376.847,769.563 377.604,774.432 377.604,779.47C377.604,807.522 354.137,830.297 325.232,830.297C317.458,830.297 310.077,828.649 303.441,825.695C295.362,822.098 292.158,815.877 304.518,816.461C317.443,817.071 328.655,802.793 334.421,793.049C337.822,787.302 340.625,782.379 342.976,778.178C346.371,780.599 350.525,782.024 355.009,782.024C365.202,782.024 373.689,774.662 375.437,764.968Z" style="fill:rgb(126,168,190);fill-opacity:0.35;"/>
                </g>
            </g>
        </g>
    </g>
</svg>
