<svg viewBox="0 0 703 148" xmlns="http://www.w3.org/2000/svg" xmlns:serif="http://www.serif.com/" fill-rule="evenodd" clip-rule="evenodd" stroke-linejoin="round" stroke-miterlimit="2"><g transform="translate(-2036.81 -864.635)"><path fill="none" d="M2036.81 864.635H2738.977V1011.703H2036.81z"/><clipPath id="a"><path d="M2036.81 864.635H2738.977V1011.703H2036.81z"/></clipPath><g clip-path="url(#a)"><g serif:id="Pictorial mark" fill="white"><path d="M2122.763 931.965c8.417 7.538 13.716 18.485 13.716 30.66 0 22.713-18.44 41.152-41.15 41.152-22.713 0-41.151-18.44-41.151-41.151 0-22.712 18.438-41.15 41.15-41.15 1.436 0 2.854.072 4.254.217a37.769 37.769 0 0 0-2.703-.096c-20.708 0-37.52 16.814-37.52 37.524s16.812 37.525 37.52 37.525c20.71 0 37.522-16.815 37.522-37.525 0-10.678-4.47-20.32-11.638-27.156z" fill-opacity="0.82"/><path d="M2037.614 907.33c11.8-24.856 37.14-42.06 66.466-42.06 40.584 0 73.534 32.949 73.534 73.534 0 40.584-32.95 73.533-73.534 73.533-29.327 0-54.666-17.204-66.466-42.059 11.3 21.279 33.69 35.78 59.44 35.78 37.12 0 67.256-30.135 67.256-67.254 0-37.12-30.137-67.256-67.256-67.256-25.75 0-48.14 14.502-59.44 35.781z" fill-opacity="0.82"/><circle cx="289.28" cy="695.353" r="31.163" transform="matrix(.6595 0 0 .6595 1885.095 444.08)"/><circle cx="289.28" cy="695.353" r="31.163" transform="matrix(.36764 0 0 .36764 2011.639 691.582)"/><path d="M2131.464 949.664a32.55 32.55 0 0 1 1.43 9.564c0 18.5-15.477 33.52-34.54 33.52a35.266 35.266 0 0 1-14.371-3.035c-5.328-2.372-7.441-6.475.71-6.09 8.524.403 15.918-9.013 19.721-15.44a461.688 461.688 0 0 0 5.642-9.807 13.623 13.623 0 0 0 7.936 2.536c6.722 0 12.32-4.855 13.472-11.248z" fill-opacity="0.61"/></g><path d="M2235.46 938.759h11.078c17.767 0 26.686-8.776 26.686-26.04 0-9.926-3.308-17.551-8.991-21.867-4.316-3.237-9.423-4.1-16.4-4.1h-12.373v52.007zm11.078-47.188c5.898 0 10.358.36 14.242 3.381 4.46 3.453 6.834 9.495 6.834 17.84 0 7.912-2.446 13.882-6.762 17.263-3.668 2.95-8.488 3.597-15.106 3.597h-4.603v-42.08h5.395z" fill="white" fill-opacity="0.85" fill-rule="nonzero"/><path d="M2282.863 938.759h5.323v-20.932c2.302-7.77 6.33-11.87 11.438-11.87h.647v-5.178c-.432-.072-.791-.072-1.223-.072-4.963 0-8.344 2.949-10.862 8.991v-8.56h-5.323v37.62z" fill="white" fill-opacity="0.85" fill-rule="nonzero"/><path fill="white" fill-opacity="0.85" fill-rule="nonzero" transform="matrix(71.93198 0 0 71.93198 2292.646 938.759)" d="M0.102 -0.11H0.199V0H0.102z"/><path d="M2335.59 932.86c3.02 4.748 6.761 6.762 12.084 6.762 8.057 0 12.444-5.035 12.444-14.674v-38.196h-5.61v37.62c0 6.978-1.367 10.359-6.834 10.359-3.38 0-5.323-1.511-7.553-5.036l-4.531 3.165z" fill="white" fill-opacity="0.85" fill-rule="nonzero"/><path d="M2399.25 901.138h-5.18v28.054c-3.452 3.812-6.905 5.682-10.645 5.682-4.46 0-6.043-2.445-6.043-7.84v-25.896h-5.179v27.838c0 6.69 3.597 10.43 9.783 10.43 4.532 0 8.488-2.086 12.516-6.33v5.683h4.748v-37.62z" fill="white" fill-opacity="0.85" fill-rule="nonzero"/><path d="M2406.299 932.285c3.093 4.532 8.344 7.121 14.243 7.121 8.344 0 13.45-4.603 13.45-11.293 0-5.251-2.876-8.416-9.135-10.43-3.956-1.295-7.48-1.727-9.998-3.525-1.223-.863-1.87-2.302-1.87-3.884 0-3.31 2.445-5.467 6.33-5.467 3.74 0 6.977 1.798 9.782 5.395l3.453-3.453c-3.596-4.244-7.984-6.258-13.523-6.258-6.69 0-11.365 4.172-11.365 10.286 0 4.964 3.093 8.344 9.495 10.287 7.337 2.23 11.58 2.59 11.58 7.624 0 3.813-2.948 6.33-7.552 6.33-4.244 0-7.769-2.014-10.718-6.042l-4.172 3.309z" fill="white" fill-opacity="0.85" fill-rule="nonzero"/><path d="M2456.724 934.227c-1.151.288-2.23.576-3.669.576-4.387 0-4.963-1.295-4.963-5.108v-24.097h8.56v-4.46h-8.56v-12.156h-5.467v12.156h-5.61v4.46h5.61v26.471c0 4.891 2.878 7.337 8.56 7.337 2.086 0 3.885-.216 5.539-.791v-4.388z" fill="white" fill-opacity="0.85" fill-rule="nonzero"/><path d="M2463.917 938.759h5.323v-37.62h-5.323v37.62zm-.432-45.677h6.186v-6.33h-6.186v6.33z" fill="white" fill-opacity="0.85" fill-rule="nonzero"/><path d="M2507.291 929.695l-4.387-2.301c-2.302 4.963-5.899 7.552-9.783 7.552-6.474 0-9.927-5.035-9.927-15.033 0-9.855 3.525-14.962 9.64-14.962 3.883 0 7.048 2.517 8.559 7.265l5.18-1.655c-2.23-6.473-7.122-10.142-13.596-10.142-9.351 0-15.106 7.121-15.106 19.494 0 12.732 5.323 19.493 15.106 19.493 6.474 0 11.221-3.165 14.314-9.71z" fill="white" fill-opacity="0.85" fill-rule="nonzero"/><path d="M2537.717 928.185c-2.23 4.388-6.042 6.761-10.718 6.761-6.042 0-10.214-4.747-10.214-12.732v-1.222h23.953v-1.583c0-12.156-5.538-18.918-14.674-18.918-8.92 0-14.674 7.05-14.674 19.422 0 12.804 5.395 19.493 15.106 19.493 7.193 0 12.084-2.805 15.034-8.847l-3.813-2.374zm-20.86-11.653c.288-7.481 3.74-11.581 9.28-11.581 5.322 0 8.919 4.172 9.063 11.58h-18.343z" fill="white" fill-opacity="0.85" fill-rule="nonzero"/><path d="M2571.31 938.759h5.683v-23.594h13.38l11.437 23.594h6.33l-12.228-24.96c7.193-2.087 10.79-6.546 10.79-13.308 0-9.927-6.762-13.739-20.789-13.739h-14.602v52.007zm14.603-47.188c10.43 0 14.962 1.799 14.962 9.423 0 6.762-4.748 9.352-15.178 9.352h-8.704V891.57h8.92z" fill="white" fill-opacity="0.85" fill-rule="nonzero"/><path d="M2638.784 928.185c-2.23 4.388-6.043 6.761-10.718 6.761-6.043 0-10.215-4.747-10.215-12.732v-1.222h23.954v-1.583c0-12.156-5.539-18.918-14.674-18.918-8.92 0-14.675 7.05-14.675 19.422 0 12.804 5.395 19.493 15.106 19.493 7.193 0 12.085-2.805 15.034-8.847l-3.812-2.374zm-20.86-11.653c.287-7.481 3.74-11.581 9.279-11.581 5.323 0 8.92 4.172 9.063 11.58h-18.343z" fill="white" fill-opacity="0.85" fill-rule="nonzero"/><path d="M2650.292 938.759h5.323v-37.62h-5.323v37.62zm-.431-45.677h6.186v-6.33h-6.186v6.33z" fill="white" fill-opacity="0.85" fill-rule="nonzero"/><path fill="white" fill-opacity="0.85" fill-rule="nonzero" transform="matrix(71.93198 0 0 71.93198 2661.585 938.759)" d="M0.087 -0.723H0.15999999999999998V0H0.087z"/><path fill="white" fill-opacity="0.85" fill-rule="nonzero" transform="matrix(71.93198 0 0 71.93198 2679.137 938.759)" d="M0.087 -0.723H0.15999999999999998V0H0.087z"/><path d="M2710.93 938.111c-1.51 6.834-3.812 9.495-9.063 9.495-.647 0-1.654-.072-2.95-.36v4.82c1.008.288 2.159.432 3.31.432 7.912 0 10.718-4.388 13.667-13.092l12.876-38.268h-5.323l-9.783 30.068-10.934-30.068h-5.323l13.523 36.973z" fill="white" fill-opacity="0.85" fill-rule="nonzero"/><g fill="white" fill-rule="nonzero"><path d="M2235.46 990.474h7.042c5.89 0 8.866-2.113 8.866-6.242 0-2.881-1.696-4.898-4.45-5.954 2.498-.928 3.778-2.689 3.778-5.121 0-4.226-2.88-5.826-8.963-5.826h-6.273v23.143zm6.754-21.063c3.969 0 5.89 1.153 5.89 3.746 0 2.624-1.825 4.097-5.186 4.097h-4.93v-7.843h4.226zm.544 9.987c3.937 0 5.985 1.6 5.985 4.514 0 3.073-1.888 4.353-5.985 4.353h-4.77v-8.867h4.77z"/><path d="M2260.491 990.474h2.529v-10.5h5.954l5.09 10.5h2.816l-5.442-11.108c3.201-.928 4.802-2.912 4.802-5.921 0-4.418-3.01-6.114-9.251-6.114h-6.498v23.143zm6.498-20.999c4.641 0 6.658.8 6.658 4.194 0 3.009-2.113 4.16-6.754 4.16h-3.873v-8.354h3.969z"/><path d="M2285.939 990.474h14.212v-2.209h-11.652v-8.867h7.875v-2.176h-7.875v-7.715h11.108v-2.176h-13.668v23.143z"/><path d="M2306.169 990.474h2.72l2.049-7.202h8.61l2.081 7.202h2.689l-7.106-23.143h-3.905l-7.138 23.143zm5.377-9.347l3.49-12.068h.351l3.457 12.068h-7.298z"/><path d="M2330.495 984.68c1.28 4.097 4.066 6.178 8.195 6.178 4.385 0 7.17-2.593 7.17-6.402 0-3.585-1.857-5.154-5.826-6.658-2.208-.832-3.937-1.344-4.93-2.113-.991-.8-1.504-1.696-1.504-2.817 0-2.304 1.569-3.777 4.066-3.777 2.592 0 4.417 1.44 5.185 4.194l2.305-.673c-1.089-3.68-3.65-5.665-7.234-5.665-4.13 0-6.786 2.464-6.786 6.178 0 3.008 1.728 4.577 5.313 5.985 1.985.769 3.873 1.28 5.378 2.305 1.056.704 1.568 1.76 1.568 3.2 0 2.402-1.856 4.034-4.833 4.034-2.625 0-4.802-1.792-5.634-4.77l-2.433.801z"/><path d="M2359.305 990.474h2.624v-20.935h6.754v-2.208h-16.132v2.208h6.754v20.935z"/><path d="M2377.038 990.474h2.561v-11.076h8.163v-2.176h-8.163v-7.715h11.011v-2.176h-13.572v23.143z"/><path d="M2398.74 990.474h14.213v-2.209h-11.651v-8.867h7.874v-2.176h-7.874v-7.715h11.107v-2.176h-13.668v23.143z"/><path d="M2421.53 990.474h14.213v-2.209h-11.652v-8.867h7.875v-2.176h-7.875v-7.715h11.108v-2.176h-13.668v23.143z"/><path d="M2444.322 990.474h4.93c7.906 0 11.875-3.905 11.875-11.588 0-4.417-1.473-7.81-4.001-9.73-1.92-1.441-4.194-1.825-7.298-1.825h-5.506v23.143zm4.93-20.999c2.624 0 4.609.16 6.337 1.505 1.985 1.536 3.041 4.225 3.041 7.938 0 3.521-1.088 6.178-3.009 7.683-1.632 1.312-3.777 1.6-6.722 1.6h-2.048v-18.726h2.4z"/><path transform="matrix(32.00947 0 0 32.00947 2467.432 990.474)" d="M0.102 -0.723H0.183V0H0.102z"/><path d="M2484.173 990.474h2.4v-20.486l12.292 20.486h1.985V967.33h-2.4v18.053l-10.628-18.053h-3.649v23.143z"/><path d="M2525.177 990.474h2.209v-11.236h-8.003v2.209h5.346v1.632c0 3.522-2.24 5.57-5.602 5.57-4.065 0-6.594-3.52-6.594-9.827 0-6.274 2.369-9.667 6.434-9.667 2.785 0 4.61 1.729 5.506 5.09l2.625-.512c-1.28-4.514-3.97-6.786-8.035-6.786-5.73 0-9.154 4.353-9.154 12.067 0 7.426 3.553 11.844 9.058 11.844 2.689 0 4.674-.928 6.114-2.913l.096 2.529z"/><path d="M2551.36 990.474h2.466v-20.39l6.978 20.39h1.728l6.978-20.39v20.39h2.465V967.33h-3.713l-6.498 19.558-6.466-19.558h-3.937v23.143z"/><path d="M2582.7 990.474h14.211v-2.209h-11.651v-8.867h7.874v-2.176h-7.874v-7.715h11.107v-2.176H2582.7v23.143z"/><path d="M2605.49 990.474h4.93c7.906 0 11.876-3.905 11.876-11.588 0-4.417-1.473-7.81-4.002-9.73-1.92-1.441-4.193-1.825-7.298-1.825h-5.505v23.143zm4.93-20.999c2.625 0 4.61.16 6.338 1.505 1.985 1.536 3.04 4.225 3.04 7.938 0 3.521-1.087 6.178-3.008 7.683-1.632 1.312-3.777 1.6-6.722 1.6h-2.049v-18.726h2.401z"/><path transform="matrix(32.00947 0 0 32.00947 2628.601 990.474)" d="M0.102 -0.723H0.183V0H0.102z"/><path d="M2660.77 983.528l-2.336-.513c-.64 3.65-2.721 5.634-5.73 5.634-4.001 0-6.402-3.393-6.402-9.667 0-6.434 2.369-9.859 6.338-9.859 2.72 0 4.641 1.857 5.346 5.346l2.4-.608c-.992-4.578-3.68-6.914-7.97-6.914-5.25 0-8.707 4.321-8.707 11.94 0 7.714 3.265 11.97 8.899 11.97 4.321 0 7.042-2.432 8.162-7.33z"/><path transform="matrix(32.00947 0 0 32.00947 2666.085 990.474)" d="M0.102 -0.723H0.183V0H0.102z"/><path d="M2682.825 990.474h2.401v-20.486l12.292 20.486h1.984V967.33h-2.4v18.053l-10.627-18.053h-3.65v23.143z"/><path d="M2710.225 990.474h14.213v-2.209h-11.652v-8.867h7.874v-2.176h-7.874v-7.715h11.107v-2.176h-13.668v23.143z"/></g><g transform="matrix(1.00732 0 0 .74218 1443.522 379.912)"><path fill="white" fill-opacity="0.85" d="M786.187 766.479H1236.877V771.493H786.187z"/></g></g></g></svg>