<?xml version="1.0" standalone="no"?>
<!DOCTYPE svg PUBLIC "-//W3C//DTD SVG 20010904//EN"
 "http://www.w3.org/TR/2001/REC-SVG-20010904/DTD/svg10.dtd">
<svg version="1.0" xmlns="http://www.w3.org/2000/svg"
 width="260.000000pt" height="260.000000pt" viewBox="0 0 260.000000 260.000000"
 preserveAspectRatio="xMidYMid meet">
<metadata>
Created by potrace 1.14, written by Peter Selinger 2001-2017
</metadata>
<g transform="translate(0.000000,260.000000) scale(0.100000,-0.100000)"
fill="#000000" stroke="none">
<path d="M1208 2415 c-2 -1 -40 -5 -84 -9 -237 -18 -495 -145 -681 -335 -59
-61 -173 -216 -173 -237 0 -5 18 19 41 53 22 34 73 94 112 134 156 154 337
246 567 287 46 8 265 7 310 -1 130 -26 221 -56 316 -108 278 -149 464 -403
529 -724 14 -66 13 -271 -2 -350 -79 -427 -407 -754 -833 -830 -68 -12 -289
-14 -330 -2 -8 2 -33 7 -55 12 -109 21 -287 101 -386 173 -75 56 -156 137
-234 237 l-16 20 10 -20 c30 -62 123 -170 222 -259 185 -166 460 -270 714
-270 314 1 584 113 800 331 162 163 265 361 309 591 23 121 15 341 -18 467
-102 397 -432 720 -826 810 -83 18 -282 39 -292 30z"/>
<path d="M735 2147 c-136 -45 -214 -143 -223 -281 -6 -96 22 -169 88 -236 100
-99 251 -121 370 -52 216 124 207 439 -15 548 -63 30 -162 40 -220 21z"/>
<path d="M1005 1555 c-5 -2 -37 -11 -70 -21 -152 -43 -308 -174 -376 -314 -20
-41 -40 -91 -45 -110 -4 -19 -10 -42 -12 -50 -12 -41 -10 -202 3 -258 56 -238
245 -423 483 -472 148 -30 259 -15 401 52 165 78 298 250 335 431 19 91 13
222 -14 305 -25 76 -69 167 -77 158 -3 -3 -1 -11 5 -18 13 -16 48 -111 58
-158 48 -231 -77 -495 -288 -605 -265 -140 -580 -62 -741 183 -74 112 -91 168
-91 307 -1 76 4 135 13 160 30 89 77 170 133 230 70 76 135 119 223 150 36 12
69 25 72 29 7 6 4 7 -12 1z"/>
<path d="M1400 1336 c-92 -40 -135 -131 -105 -220 27 -77 95 -121 177 -113
144 13 207 179 109 291 -37 42 -130 64 -181 42z"/>
<path d="M1651 1101 c-35 -82 -108 -132 -195 -132 -28 0 -64 7 -81 15 -16 9
-33 16 -36 16 -3 0 -19 -24 -34 -52 -45 -84 -119 -189 -166 -237 -58 -57 -111
-83 -184 -88 -106 -9 -109 -51 -5 -97 215 -95 486 -26 625 159 44 59 89 154
100 210 8 47 7 144 -3 200 l-7 40 -14 -34z"/>
</g>
</svg>
